<mxfile host="app.diagrams.net" modified="2023-07-27T14:45:13.426Z" agent="Mozilla/5.0 (Windows NT 10.0; Win64; x64) AppleWebKit/537.36 (KHTML, like Gecko) Chrome/115.0.0.0 Safari/537.36 Edg/115.0.1901.183" etag="mR4ycO6jWkelB0pTcx0Y" version="21.6.5" type="device">
  <diagram name="Page-1" id="rXpYSVPGBm6s1zXwmcBc">
    <mxGraphModel dx="305" dy="180" grid="1" gridSize="10" guides="1" tooltips="1" connect="1" arrows="1" fold="1" page="1" pageScale="1" pageWidth="827" pageHeight="1169" math="0" shadow="0">
      <root>
        <mxCell id="0" />
        <mxCell id="1" parent="0" />
        <mxCell id="Ntc3w_zgLwPCbCogsv-x-1" value="" style="shape=trapezoid;perimeter=trapezoidPerimeter;whiteSpace=wrap;html=1;fixedSize=1;direction=north;size=30;" vertex="1" parent="1">
          <mxGeometry x="180" y="200" width="60" height="120" as="geometry" />
        </mxCell>
        <mxCell id="Ntc3w_zgLwPCbCogsv-x-2" value="" style="endArrow=classic;html=1;rounded=0;" edge="1" parent="1" target="Ntc3w_zgLwPCbCogsv-x-1">
          <mxGeometry width="50" height="50" relative="1" as="geometry">
            <mxPoint x="100" y="260" as="sourcePoint" />
            <mxPoint x="320" y="230" as="targetPoint" />
          </mxGeometry>
        </mxCell>
        <mxCell id="Ntc3w_zgLwPCbCogsv-x-3" value="aw" style="text;html=1;align=right;verticalAlign=middle;resizable=0;points=[];autosize=1;strokeColor=none;fillColor=none;spacing=5;" vertex="1" parent="1">
          <mxGeometry x="60" y="45" width="40" height="30" as="geometry" />
        </mxCell>
        <mxCell id="Ntc3w_zgLwPCbCogsv-x-7" value="aw_valid" style="text;html=1;align=right;verticalAlign=middle;resizable=0;points=[];autosize=1;strokeColor=none;fillColor=none;spacing=5;" vertex="1" parent="1">
          <mxGeometry x="20" y="245" width="80" height="30" as="geometry" />
        </mxCell>
        <mxCell id="Ntc3w_zgLwPCbCogsv-x-8" value="" style="shape=trapezoid;perimeter=trapezoidPerimeter;whiteSpace=wrap;html=1;fixedSize=1;direction=north;size=30;" vertex="1" parent="1">
          <mxGeometry x="180" y="360" width="60" height="120" as="geometry" />
        </mxCell>
        <mxCell id="Ntc3w_zgLwPCbCogsv-x-9" value="" style="endArrow=classic;html=1;rounded=0;" edge="1" parent="1" source="Ntc3w_zgLwPCbCogsv-x-8">
          <mxGeometry width="50" height="50" relative="1" as="geometry">
            <mxPoint x="320" y="390" as="sourcePoint" />
            <mxPoint x="100" y="420" as="targetPoint" />
          </mxGeometry>
        </mxCell>
        <mxCell id="Ntc3w_zgLwPCbCogsv-x-10" value="aw_ready" style="text;html=1;align=right;verticalAlign=middle;resizable=0;points=[];autosize=1;strokeColor=none;fillColor=none;spacing=5;" vertex="1" parent="1">
          <mxGeometry x="20" y="405" width="80" height="30" as="geometry" />
        </mxCell>
        <mxCell id="Ntc3w_zgLwPCbCogsv-x-11" value="" style="endArrow=classic;html=1;rounded=0;" edge="1" parent="1" source="Ntc3w_zgLwPCbCogsv-x-14">
          <mxGeometry width="50" height="50" relative="1" as="geometry">
            <mxPoint x="220" y="60" as="sourcePoint" />
            <mxPoint x="600" y="60" as="targetPoint" />
          </mxGeometry>
        </mxCell>
        <mxCell id="Ntc3w_zgLwPCbCogsv-x-24" style="edgeStyle=orthogonalEdgeStyle;rounded=0;orthogonalLoop=1;jettySize=auto;html=1;endArrow=none;endFill=0;" edge="1" parent="1" source="Ntc3w_zgLwPCbCogsv-x-13" target="Ntc3w_zgLwPCbCogsv-x-22">
          <mxGeometry relative="1" as="geometry">
            <Array as="points">
              <mxPoint x="210" y="180" />
              <mxPoint x="140" y="180" />
            </Array>
          </mxGeometry>
        </mxCell>
        <mxCell id="Ntc3w_zgLwPCbCogsv-x-13" value="addr&lt;br&gt;decoder" style="rounded=0;whiteSpace=wrap;html=1;" vertex="1" parent="1">
          <mxGeometry x="180" y="100" width="60" height="60" as="geometry" />
        </mxCell>
        <mxCell id="Ntc3w_zgLwPCbCogsv-x-19" value="" style="endArrow=none;html=1;rounded=0;endFill=0;" edge="1" parent="1" target="Ntc3w_zgLwPCbCogsv-x-14">
          <mxGeometry width="50" height="50" relative="1" as="geometry">
            <mxPoint x="100" y="60" as="sourcePoint" />
            <mxPoint x="400" y="60" as="targetPoint" />
          </mxGeometry>
        </mxCell>
        <mxCell id="Ntc3w_zgLwPCbCogsv-x-20" style="edgeStyle=orthogonalEdgeStyle;rounded=0;orthogonalLoop=1;jettySize=auto;html=1;" edge="1" parent="1" source="Ntc3w_zgLwPCbCogsv-x-14" target="Ntc3w_zgLwPCbCogsv-x-13">
          <mxGeometry relative="1" as="geometry">
            <mxPoint x="210" y="90" as="targetPoint" />
          </mxGeometry>
        </mxCell>
        <mxCell id="Ntc3w_zgLwPCbCogsv-x-14" value="" style="shape=waypoint;sketch=0;size=6;pointerEvents=1;points=[];fillColor=none;resizable=0;rotatable=0;perimeter=centerPerimeter;snapToPoint=1;" vertex="1" parent="1">
          <mxGeometry x="200" y="50" width="20" height="20" as="geometry" />
        </mxCell>
        <mxCell id="Ntc3w_zgLwPCbCogsv-x-23" style="edgeStyle=orthogonalEdgeStyle;rounded=0;orthogonalLoop=1;jettySize=auto;html=1;entryX=1;entryY=0.5;entryDx=0;entryDy=0;" edge="1" parent="1" source="Ntc3w_zgLwPCbCogsv-x-22" target="Ntc3w_zgLwPCbCogsv-x-1">
          <mxGeometry relative="1" as="geometry">
            <Array as="points">
              <mxPoint x="210" y="200" />
            </Array>
          </mxGeometry>
        </mxCell>
        <mxCell id="Ntc3w_zgLwPCbCogsv-x-25" style="edgeStyle=orthogonalEdgeStyle;rounded=0;orthogonalLoop=1;jettySize=auto;html=1;entryX=1;entryY=0.5;entryDx=0;entryDy=0;" edge="1" parent="1" source="Ntc3w_zgLwPCbCogsv-x-22" target="Ntc3w_zgLwPCbCogsv-x-8">
          <mxGeometry relative="1" as="geometry">
            <Array as="points">
              <mxPoint x="140" y="360" />
              <mxPoint x="210" y="360" />
            </Array>
          </mxGeometry>
        </mxCell>
        <mxCell id="Ntc3w_zgLwPCbCogsv-x-22" value="" style="shape=waypoint;sketch=0;size=6;pointerEvents=1;points=[];fillColor=none;resizable=0;rotatable=0;perimeter=centerPerimeter;snapToPoint=1;" vertex="1" parent="1">
          <mxGeometry x="200" y="170" width="20" height="20" as="geometry" />
        </mxCell>
        <mxCell id="Ntc3w_zgLwPCbCogsv-x-26" value="" style="shape=trapezoid;perimeter=trapezoidPerimeter;whiteSpace=wrap;html=1;fixedSize=1;direction=south;size=30;" vertex="1" parent="1">
          <mxGeometry x="600" y="200" width="60" height="120" as="geometry" />
        </mxCell>
        <mxCell id="Ntc3w_zgLwPCbCogsv-x-27" value="" style="shape=trapezoid;perimeter=trapezoidPerimeter;whiteSpace=wrap;html=1;fixedSize=1;direction=south;size=30;" vertex="1" parent="1">
          <mxGeometry x="600" y="360" width="60" height="120" as="geometry" />
        </mxCell>
        <mxCell id="Ntc3w_zgLwPCbCogsv-x-28" value="" style="endArrow=classic;html=1;rounded=0;" edge="1" parent="1">
          <mxGeometry width="50" height="50" relative="1" as="geometry">
            <mxPoint x="240" y="220" as="sourcePoint" />
            <mxPoint x="600" y="220" as="targetPoint" />
          </mxGeometry>
        </mxCell>
        <mxCell id="Ntc3w_zgLwPCbCogsv-x-29" value="" style="endArrow=classic;html=1;rounded=0;" edge="1" parent="1">
          <mxGeometry width="50" height="50" relative="1" as="geometry">
            <mxPoint x="440" y="240" as="sourcePoint" />
            <mxPoint x="600" y="240" as="targetPoint" />
          </mxGeometry>
        </mxCell>
        <mxCell id="Ntc3w_zgLwPCbCogsv-x-30" value="" style="endArrow=classic;html=1;rounded=0;" edge="1" parent="1">
          <mxGeometry width="50" height="50" relative="1" as="geometry">
            <mxPoint x="440" y="260" as="sourcePoint" />
            <mxPoint x="600" y="260" as="targetPoint" />
          </mxGeometry>
        </mxCell>
        <mxCell id="Ntc3w_zgLwPCbCogsv-x-31" value="" style="endArrow=classic;html=1;rounded=0;" edge="1" parent="1">
          <mxGeometry width="50" height="50" relative="1" as="geometry">
            <mxPoint x="440" y="280" as="sourcePoint" />
            <mxPoint x="600" y="280" as="targetPoint" />
          </mxGeometry>
        </mxCell>
        <mxCell id="Ntc3w_zgLwPCbCogsv-x-32" value="" style="endArrow=classic;html=1;rounded=0;" edge="1" parent="1">
          <mxGeometry width="50" height="50" relative="1" as="geometry">
            <mxPoint x="440" y="300" as="sourcePoint" />
            <mxPoint x="600" y="300" as="targetPoint" />
          </mxGeometry>
        </mxCell>
        <mxCell id="Ntc3w_zgLwPCbCogsv-x-33" value="" style="shape=trapezoid;perimeter=trapezoidPerimeter;whiteSpace=wrap;html=1;fixedSize=1;direction=south;size=30;" vertex="1" parent="1">
          <mxGeometry x="600" y="40" width="60" height="120" as="geometry" />
        </mxCell>
        <mxCell id="Ntc3w_zgLwPCbCogsv-x-37" value="" style="endArrow=classic;html=1;rounded=0;" edge="1" parent="1">
          <mxGeometry width="50" height="50" relative="1" as="geometry">
            <mxPoint x="440" y="80" as="sourcePoint" />
            <mxPoint x="600" y="80" as="targetPoint" />
          </mxGeometry>
        </mxCell>
        <mxCell id="Ntc3w_zgLwPCbCogsv-x-38" value="" style="endArrow=classic;html=1;rounded=0;" edge="1" parent="1">
          <mxGeometry width="50" height="50" relative="1" as="geometry">
            <mxPoint x="440" y="100" as="sourcePoint" />
            <mxPoint x="600" y="100" as="targetPoint" />
          </mxGeometry>
        </mxCell>
        <mxCell id="Ntc3w_zgLwPCbCogsv-x-39" value="" style="endArrow=classic;html=1;rounded=0;" edge="1" parent="1">
          <mxGeometry width="50" height="50" relative="1" as="geometry">
            <mxPoint x="440" y="120" as="sourcePoint" />
            <mxPoint x="600" y="120" as="targetPoint" />
          </mxGeometry>
        </mxCell>
        <mxCell id="Ntc3w_zgLwPCbCogsv-x-40" value="" style="endArrow=classic;html=1;rounded=0;" edge="1" parent="1">
          <mxGeometry width="50" height="50" relative="1" as="geometry">
            <mxPoint x="440" y="140" as="sourcePoint" />
            <mxPoint x="600" y="140" as="targetPoint" />
          </mxGeometry>
        </mxCell>
        <mxCell id="Ntc3w_zgLwPCbCogsv-x-41" value="Arbiter" style="rounded=0;whiteSpace=wrap;html=1;" vertex="1" parent="1">
          <mxGeometry x="460" y="520" width="120" height="30" as="geometry" />
        </mxCell>
        <mxCell id="Ntc3w_zgLwPCbCogsv-x-42" value="" style="endArrow=classic;html=1;rounded=0;" edge="1" parent="1">
          <mxGeometry width="50" height="50" relative="1" as="geometry">
            <mxPoint x="240" y="240" as="sourcePoint" />
            <mxPoint x="400" y="240" as="targetPoint" />
          </mxGeometry>
        </mxCell>
        <mxCell id="Ntc3w_zgLwPCbCogsv-x-43" value="" style="endArrow=classic;html=1;rounded=0;" edge="1" parent="1">
          <mxGeometry width="50" height="50" relative="1" as="geometry">
            <mxPoint x="240" y="260" as="sourcePoint" />
            <mxPoint x="400" y="260" as="targetPoint" />
          </mxGeometry>
        </mxCell>
        <mxCell id="Ntc3w_zgLwPCbCogsv-x-44" value="" style="endArrow=classic;html=1;rounded=0;" edge="1" parent="1">
          <mxGeometry width="50" height="50" relative="1" as="geometry">
            <mxPoint x="240" y="280" as="sourcePoint" />
            <mxPoint x="400" y="280" as="targetPoint" />
          </mxGeometry>
        </mxCell>
        <mxCell id="Ntc3w_zgLwPCbCogsv-x-45" value="" style="endArrow=classic;html=1;rounded=0;" edge="1" parent="1">
          <mxGeometry width="50" height="50" relative="1" as="geometry">
            <mxPoint x="240" y="300" as="sourcePoint" />
            <mxPoint x="400" y="300" as="targetPoint" />
          </mxGeometry>
        </mxCell>
        <mxCell id="Ntc3w_zgLwPCbCogsv-x-46" value="" style="endArrow=classic;html=1;rounded=0;" edge="1" parent="1">
          <mxGeometry width="50" height="50" relative="1" as="geometry">
            <mxPoint x="600" y="380" as="sourcePoint" />
            <mxPoint x="240" y="380" as="targetPoint" />
          </mxGeometry>
        </mxCell>
        <mxCell id="Ntc3w_zgLwPCbCogsv-x-47" value="" style="endArrow=classic;html=1;rounded=0;" edge="1" parent="1">
          <mxGeometry width="50" height="50" relative="1" as="geometry">
            <mxPoint x="600" y="400" as="sourcePoint" />
            <mxPoint x="440" y="400" as="targetPoint" />
          </mxGeometry>
        </mxCell>
        <mxCell id="Ntc3w_zgLwPCbCogsv-x-48" value="" style="endArrow=classic;html=1;rounded=0;" edge="1" parent="1">
          <mxGeometry width="50" height="50" relative="1" as="geometry">
            <mxPoint x="600" y="420" as="sourcePoint" />
            <mxPoint x="440" y="420" as="targetPoint" />
          </mxGeometry>
        </mxCell>
        <mxCell id="Ntc3w_zgLwPCbCogsv-x-49" value="" style="endArrow=classic;html=1;rounded=0;" edge="1" parent="1">
          <mxGeometry width="50" height="50" relative="1" as="geometry">
            <mxPoint x="600" y="440" as="sourcePoint" />
            <mxPoint x="440" y="440" as="targetPoint" />
          </mxGeometry>
        </mxCell>
        <mxCell id="Ntc3w_zgLwPCbCogsv-x-50" value="" style="endArrow=classic;html=1;rounded=0;" edge="1" parent="1">
          <mxGeometry width="50" height="50" relative="1" as="geometry">
            <mxPoint x="600" y="460" as="sourcePoint" />
            <mxPoint x="440" y="460" as="targetPoint" />
          </mxGeometry>
        </mxCell>
        <mxCell id="Ntc3w_zgLwPCbCogsv-x-51" value="" style="endArrow=classic;html=1;rounded=0;" edge="1" parent="1">
          <mxGeometry width="50" height="50" relative="1" as="geometry">
            <mxPoint x="400" y="400" as="sourcePoint" />
            <mxPoint x="240" y="400" as="targetPoint" />
          </mxGeometry>
        </mxCell>
        <mxCell id="Ntc3w_zgLwPCbCogsv-x-52" value="" style="endArrow=classic;html=1;rounded=0;" edge="1" parent="1">
          <mxGeometry width="50" height="50" relative="1" as="geometry">
            <mxPoint x="400" y="420" as="sourcePoint" />
            <mxPoint x="240" y="420" as="targetPoint" />
          </mxGeometry>
        </mxCell>
        <mxCell id="Ntc3w_zgLwPCbCogsv-x-53" value="" style="endArrow=classic;html=1;rounded=0;" edge="1" parent="1">
          <mxGeometry width="50" height="50" relative="1" as="geometry">
            <mxPoint x="400" y="440" as="sourcePoint" />
            <mxPoint x="240" y="440" as="targetPoint" />
          </mxGeometry>
        </mxCell>
        <mxCell id="Ntc3w_zgLwPCbCogsv-x-54" value="" style="endArrow=classic;html=1;rounded=0;" edge="1" parent="1">
          <mxGeometry width="50" height="50" relative="1" as="geometry">
            <mxPoint x="400" y="460" as="sourcePoint" />
            <mxPoint x="240" y="460" as="targetPoint" />
          </mxGeometry>
        </mxCell>
        <mxCell id="Ntc3w_zgLwPCbCogsv-x-56" value="" style="endArrow=classic;html=1;rounded=0;" edge="1" parent="1">
          <mxGeometry width="50" height="50" relative="1" as="geometry">
            <mxPoint x="660" y="260" as="sourcePoint" />
            <mxPoint x="740" y="260" as="targetPoint" />
          </mxGeometry>
        </mxCell>
        <mxCell id="Ntc3w_zgLwPCbCogsv-x-57" value="" style="endArrow=classic;html=1;rounded=0;" edge="1" parent="1">
          <mxGeometry width="50" height="50" relative="1" as="geometry">
            <mxPoint x="740" y="420" as="sourcePoint" />
            <mxPoint x="660" y="420" as="targetPoint" />
          </mxGeometry>
        </mxCell>
        <mxCell id="Ntc3w_zgLwPCbCogsv-x-58" value="aw_valid" style="text;html=1;align=left;verticalAlign=middle;resizable=0;points=[];autosize=1;strokeColor=none;fillColor=none;spacing=5;" vertex="1" parent="1">
          <mxGeometry x="740" y="245" width="80" height="30" as="geometry" />
        </mxCell>
        <mxCell id="Ntc3w_zgLwPCbCogsv-x-59" value="aw_ready" style="text;html=1;align=left;verticalAlign=middle;resizable=0;points=[];autosize=1;strokeColor=none;fillColor=none;spacing=5;" vertex="1" parent="1">
          <mxGeometry x="740" y="405" width="80" height="30" as="geometry" />
        </mxCell>
        <mxCell id="Ntc3w_zgLwPCbCogsv-x-60" value="aw" style="text;html=1;align=left;verticalAlign=middle;resizable=0;points=[];autosize=1;strokeColor=none;fillColor=none;spacing=5;" vertex="1" parent="1">
          <mxGeometry x="740" y="85" width="40" height="30" as="geometry" />
        </mxCell>
        <mxCell id="Ntc3w_zgLwPCbCogsv-x-61" value="" style="endArrow=classic;html=1;rounded=0;" edge="1" parent="1">
          <mxGeometry width="50" height="50" relative="1" as="geometry">
            <mxPoint x="660" y="100" as="sourcePoint" />
            <mxPoint x="740" y="100" as="targetPoint" />
          </mxGeometry>
        </mxCell>
        <mxCell id="Ntc3w_zgLwPCbCogsv-x-62" value="" style="endArrow=classic;html=1;rounded=0;" edge="1" parent="1">
          <mxGeometry width="50" height="50" relative="1" as="geometry">
            <mxPoint x="560" y="220" as="sourcePoint" />
            <mxPoint x="560" y="520" as="targetPoint" />
          </mxGeometry>
        </mxCell>
        <mxCell id="Ntc3w_zgLwPCbCogsv-x-63" value="" style="endArrow=classic;html=1;rounded=0;" edge="1" parent="1">
          <mxGeometry width="50" height="50" relative="1" as="geometry">
            <mxPoint x="540" y="240" as="sourcePoint" />
            <mxPoint x="540" y="520" as="targetPoint" />
          </mxGeometry>
        </mxCell>
        <mxCell id="Ntc3w_zgLwPCbCogsv-x-64" value="" style="endArrow=classic;html=1;rounded=0;" edge="1" parent="1">
          <mxGeometry width="50" height="50" relative="1" as="geometry">
            <mxPoint x="520" y="260" as="sourcePoint" />
            <mxPoint x="520" y="520" as="targetPoint" />
          </mxGeometry>
        </mxCell>
        <mxCell id="Ntc3w_zgLwPCbCogsv-x-65" value="" style="endArrow=classic;html=1;rounded=0;" edge="1" parent="1">
          <mxGeometry width="50" height="50" relative="1" as="geometry">
            <mxPoint x="500" y="280" as="sourcePoint" />
            <mxPoint x="500" y="520" as="targetPoint" />
          </mxGeometry>
        </mxCell>
        <mxCell id="Ntc3w_zgLwPCbCogsv-x-66" value="" style="endArrow=classic;html=1;rounded=0;" edge="1" parent="1">
          <mxGeometry width="50" height="50" relative="1" as="geometry">
            <mxPoint x="480" y="300" as="sourcePoint" />
            <mxPoint x="480" y="520" as="targetPoint" />
          </mxGeometry>
        </mxCell>
        <mxCell id="Ntc3w_zgLwPCbCogsv-x-67" value="" style="shape=waypoint;sketch=0;size=6;pointerEvents=1;points=[];fillColor=none;resizable=0;rotatable=0;perimeter=centerPerimeter;snapToPoint=1;" vertex="1" parent="1">
          <mxGeometry x="550" y="210" width="20" height="20" as="geometry" />
        </mxCell>
        <mxCell id="Ntc3w_zgLwPCbCogsv-x-68" value="" style="shape=waypoint;sketch=0;size=6;pointerEvents=1;points=[];fillColor=none;resizable=0;rotatable=0;perimeter=centerPerimeter;snapToPoint=1;" vertex="1" parent="1">
          <mxGeometry x="530" y="230" width="20" height="20" as="geometry" />
        </mxCell>
        <mxCell id="Ntc3w_zgLwPCbCogsv-x-69" value="" style="shape=waypoint;sketch=0;size=6;pointerEvents=1;points=[];fillColor=none;resizable=0;rotatable=0;perimeter=centerPerimeter;snapToPoint=1;" vertex="1" parent="1">
          <mxGeometry x="510" y="250" width="20" height="20" as="geometry" />
        </mxCell>
        <mxCell id="Ntc3w_zgLwPCbCogsv-x-70" value="" style="shape=waypoint;sketch=0;size=6;pointerEvents=1;points=[];fillColor=none;resizable=0;rotatable=0;perimeter=centerPerimeter;snapToPoint=1;" vertex="1" parent="1">
          <mxGeometry x="490" y="270" width="20" height="20" as="geometry" />
        </mxCell>
        <mxCell id="Ntc3w_zgLwPCbCogsv-x-71" value="" style="shape=waypoint;sketch=0;size=6;pointerEvents=1;points=[];fillColor=none;resizable=0;rotatable=0;perimeter=centerPerimeter;snapToPoint=1;" vertex="1" parent="1">
          <mxGeometry x="470" y="290" width="20" height="20" as="geometry" />
        </mxCell>
        <mxCell id="Ntc3w_zgLwPCbCogsv-x-78" style="edgeStyle=orthogonalEdgeStyle;rounded=0;orthogonalLoop=1;jettySize=auto;html=1;endArrow=none;endFill=0;" edge="1" parent="1" source="Ntc3w_zgLwPCbCogsv-x-72">
          <mxGeometry relative="1" as="geometry">
            <mxPoint x="640" y="530" as="targetPoint" />
            <Array as="points">
              <mxPoint x="710" y="530" />
            </Array>
          </mxGeometry>
        </mxCell>
        <mxCell id="Ntc3w_zgLwPCbCogsv-x-72" value="" style="shape=waypoint;sketch=0;size=6;pointerEvents=1;points=[];fillColor=none;resizable=0;rotatable=0;perimeter=centerPerimeter;snapToPoint=1;" vertex="1" parent="1">
          <mxGeometry x="700" y="410" width="20" height="20" as="geometry" />
        </mxCell>
        <mxCell id="Ntc3w_zgLwPCbCogsv-x-74" style="edgeStyle=orthogonalEdgeStyle;rounded=0;orthogonalLoop=1;jettySize=auto;html=1;" edge="1" parent="1" source="Ntc3w_zgLwPCbCogsv-x-73">
          <mxGeometry relative="1" as="geometry">
            <mxPoint x="580" y="535" as="targetPoint" />
            <mxPoint x="610" y="535" as="sourcePoint" />
          </mxGeometry>
        </mxCell>
        <mxCell id="Ntc3w_zgLwPCbCogsv-x-73" value="" style="shape=or;whiteSpace=wrap;html=1;direction=west;" vertex="1" parent="1">
          <mxGeometry x="620" y="520" width="20" height="30" as="geometry" />
        </mxCell>
        <mxCell id="Ntc3w_zgLwPCbCogsv-x-79" value="" style="endArrow=none;html=1;rounded=0;" edge="1" parent="1" target="Ntc3w_zgLwPCbCogsv-x-80">
          <mxGeometry width="50" height="50" relative="1" as="geometry">
            <mxPoint x="640" y="540" as="sourcePoint" />
            <mxPoint x="700" y="720" as="targetPoint" />
            <Array as="points">
              <mxPoint x="710" y="540" />
            </Array>
          </mxGeometry>
        </mxCell>
        <mxCell id="Ntc3w_zgLwPCbCogsv-x-80" value="grant_id_ready" style="text;html=1;align=center;verticalAlign=middle;resizable=0;points=[];autosize=1;strokeColor=none;fillColor=none;spacing=5;" vertex="1" parent="1">
          <mxGeometry x="655" y="730" width="110" height="30" as="geometry" />
        </mxCell>
        <mxCell id="Ntc3w_zgLwPCbCogsv-x-83" value="" style="shape=waypoint;sketch=0;size=6;pointerEvents=1;points=[];fillColor=none;resizable=0;rotatable=0;perimeter=centerPerimeter;snapToPoint=1;" vertex="1" parent="1">
          <mxGeometry x="680" y="480" width="20" height="20" as="geometry" />
        </mxCell>
        <mxCell id="Ntc3w_zgLwPCbCogsv-x-86" style="edgeStyle=orthogonalEdgeStyle;rounded=0;orthogonalLoop=1;jettySize=auto;html=1;" edge="1" parent="1" source="Ntc3w_zgLwPCbCogsv-x-84" target="Ntc3w_zgLwPCbCogsv-x-33">
          <mxGeometry relative="1" as="geometry">
            <Array as="points">
              <mxPoint x="690" y="170" />
              <mxPoint x="630" y="170" />
            </Array>
          </mxGeometry>
        </mxCell>
        <mxCell id="Ntc3w_zgLwPCbCogsv-x-88" style="edgeStyle=orthogonalEdgeStyle;rounded=0;orthogonalLoop=1;jettySize=auto;html=1;entryX=1;entryY=0.5;entryDx=0;entryDy=0;" edge="1" parent="1" source="Ntc3w_zgLwPCbCogsv-x-84" target="Ntc3w_zgLwPCbCogsv-x-26">
          <mxGeometry relative="1" as="geometry">
            <Array as="points">
              <mxPoint x="630" y="330" />
            </Array>
          </mxGeometry>
        </mxCell>
        <mxCell id="Ntc3w_zgLwPCbCogsv-x-84" value="" style="shape=waypoint;sketch=0;size=6;pointerEvents=1;points=[];fillColor=none;resizable=0;rotatable=0;perimeter=centerPerimeter;snapToPoint=1;" vertex="1" parent="1">
          <mxGeometry x="680" y="320" width="20" height="20" as="geometry" />
        </mxCell>
        <mxCell id="Ntc3w_zgLwPCbCogsv-x-89" style="edgeStyle=orthogonalEdgeStyle;rounded=0;orthogonalLoop=1;jettySize=auto;html=1;entryX=1;entryY=0.5;entryDx=0;entryDy=0;" edge="1" parent="1">
          <mxGeometry relative="1" as="geometry">
            <mxPoint x="690" y="490" as="sourcePoint" />
            <mxPoint x="630" y="465" as="targetPoint" />
            <Array as="points">
              <mxPoint x="630" y="490" />
            </Array>
          </mxGeometry>
        </mxCell>
        <mxCell id="Ntc3w_zgLwPCbCogsv-x-90" style="edgeStyle=orthogonalEdgeStyle;rounded=0;orthogonalLoop=1;jettySize=auto;html=1;endArrow=none;endFill=0;entryX=0.5;entryY=1;entryDx=0;entryDy=0;" edge="1" parent="1" source="Ntc3w_zgLwPCbCogsv-x-84" target="Ntc3w_zgLwPCbCogsv-x-41">
          <mxGeometry relative="1" as="geometry">
            <mxPoint x="650" y="540" as="targetPoint" />
            <mxPoint x="720" y="430" as="sourcePoint" />
            <Array as="points">
              <mxPoint x="690" y="610" />
              <mxPoint x="520" y="610" />
            </Array>
          </mxGeometry>
        </mxCell>
        <mxCell id="Ntc3w_zgLwPCbCogsv-x-94" style="edgeStyle=orthogonalEdgeStyle;rounded=0;orthogonalLoop=1;jettySize=auto;html=1;" edge="1" parent="1" source="Ntc3w_zgLwPCbCogsv-x-91" target="Ntc3w_zgLwPCbCogsv-x-92">
          <mxGeometry relative="1" as="geometry" />
        </mxCell>
        <mxCell id="Ntc3w_zgLwPCbCogsv-x-91" value="" style="shape=waypoint;sketch=0;size=6;pointerEvents=1;points=[];fillColor=none;resizable=0;rotatable=0;perimeter=centerPerimeter;snapToPoint=1;" vertex="1" parent="1">
          <mxGeometry x="510" y="600" width="20" height="20" as="geometry" />
        </mxCell>
        <mxCell id="Ntc3w_zgLwPCbCogsv-x-92" value="grant_id" style="text;html=1;align=center;verticalAlign=middle;resizable=0;points=[];autosize=1;strokeColor=none;fillColor=none;spacing=5;" vertex="1" parent="1">
          <mxGeometry x="485" y="730" width="70" height="30" as="geometry" />
        </mxCell>
        <mxCell id="Ntc3w_zgLwPCbCogsv-x-95" value="" style="shape=waypoint;sketch=0;size=6;pointerEvents=1;points=[];fillColor=none;resizable=0;rotatable=0;perimeter=centerPerimeter;snapToPoint=1;" vertex="1" parent="1">
          <mxGeometry x="690" y="250" width="20" height="20" as="geometry" />
        </mxCell>
        <mxCell id="Ntc3w_zgLwPCbCogsv-x-98" style="edgeStyle=orthogonalEdgeStyle;rounded=0;orthogonalLoop=1;jettySize=auto;html=1;exitX=0.476;exitY=0.69;exitDx=0;exitDy=0;exitPerimeter=0;" edge="1" parent="1" source="Ntc3w_zgLwPCbCogsv-x-95">
          <mxGeometry relative="1" as="geometry">
            <mxPoint x="615" y="610" as="sourcePoint" />
            <mxPoint x="615" y="730" as="targetPoint" />
            <Array as="points">
              <mxPoint x="700" y="620" />
              <mxPoint x="615" y="620" />
            </Array>
          </mxGeometry>
        </mxCell>
        <mxCell id="Ntc3w_zgLwPCbCogsv-x-100" value="grant_id_valid" style="text;html=1;align=center;verticalAlign=middle;resizable=0;points=[];autosize=1;strokeColor=none;fillColor=none;spacing=5;" vertex="1" parent="1">
          <mxGeometry x="560" y="730" width="100" height="30" as="geometry" />
        </mxCell>
      </root>
    </mxGraphModel>
  </diagram>
</mxfile>
